<svg xmlns="http://www.w3.org/2000/svg" width="272" height="30" viewBox="0 0 272 30" fill="none"><path d="M8.24 23.72C9.25333 23.72 10.0267 23.0933 10.56 21.84C11.1067 20.5867 11.38 18.52 11.38 15.64V13.62C11.38 11.5133 11.1267 9.88667 10.62 8.74C10.1133 7.59333 9.39333 7.02 8.46 7.02H6.96V23.72H8.24ZM8.86 27.14C8.38 27.14 7.63333 27.1133 6.62 27.06C5.62 27.02 4.58666 27 3.52 27H0.339996V3.56H3.52C4.41333 3.54667 5.38666 3.51333 6.44 3.46C7.49333 3.40667 8.32 3.38 8.92 3.38C12.32 3.38 14.7533 4.33333 16.22 6.24C17.7 8.14667 18.44 10.9267 18.44 14.58C18.44 15.82 18.3533 17 18.18 18.12C18.02 19.24 17.7133 20.3667 17.26 21.5C16.8067 22.62 16.2333 23.5867 15.54 24.4C14.8467 25.2133 13.9267 25.8733 12.78 26.38C11.6333 26.8867 10.3267 27.14 8.86 27.14Z" fill="white"></path><path d="M34.5005 27H20.3205V3.56H34.2005L33.8005 8.28L26.9405 8.08V12.6H32.3405V17.28L26.9405 16.88V22.2L34.5005 22V27Z" fill="white"></path><path d="M43.2966 27.42C42.2699 27.42 41.3099 27.3267 40.4166 27.14C39.5366 26.9667 38.7966 26.7333 38.1966 26.44C37.5966 26.1467 37.1032 25.8667 36.7166 25.6C36.3432 25.3333 36.0299 25.0667 35.7766 24.8L36.2766 19.94C36.8232 20.6733 37.5566 21.3133 38.4766 21.86C39.3966 22.3933 40.3899 22.66 41.4566 22.66C42.5232 22.66 43.2899 22.5467 43.7566 22.32C44.2366 22.0933 44.4766 21.68 44.4766 21.08C44.4766 20.44 44.2032 19.8933 43.6566 19.44C43.1232 18.9867 42.1966 18.44 40.8766 17.8C40.3966 17.56 39.9899 17.3467 39.6566 17.16C39.3232 16.96 38.8766 16.64 38.3166 16.2C37.7699 15.7467 37.3232 15.28 36.9766 14.8C36.6299 14.3067 36.3232 13.68 36.0566 12.92C35.7899 12.1467 35.6566 11.32 35.6566 10.44C35.6566 5.68 38.3432 3.3 43.7166 3.3C44.5699 3.3 45.3699 3.39333 46.1166 3.58C46.8766 3.75333 47.4699 3.94667 47.8966 4.16C48.3232 4.37333 48.7099 4.62667 49.0566 4.92C49.4166 5.2 49.6432 5.4 49.7366 5.52C49.8299 5.62667 49.8966 5.71333 49.9366 5.78L48.9366 9.64C48.4166 9.02667 47.7632 8.57333 46.9766 8.28C46.2032 7.97333 45.4632 7.82 44.7566 7.82C43.0499 7.82 42.1966 8.35333 42.1966 9.42C42.1966 9.7 42.2499 9.95333 42.3566 10.18C42.4632 10.4067 42.6366 10.6133 42.8766 10.8C43.1166 10.9867 43.3366 11.1467 43.5366 11.28C43.7499 11.4133 44.0366 11.58 44.3966 11.78C44.7699 11.9667 45.0499 12.12 45.2366 12.24C47.1832 13.0667 48.6099 14.0467 49.5166 15.18C50.4366 16.3133 50.8966 17.6933 50.8966 19.32C50.8966 21.96 50.2432 23.9733 48.9366 25.36C47.6432 26.7333 45.7632 27.42 43.2966 27.42Z" fill="white"></path><path d="M53.0758 27V3.56H59.8958V27H53.0758Z" fill="white"></path><path d="M69.2052 19.2V27H62.5652V3.56H65.2052C65.8452 3.56 66.7985 3.53333 68.0652 3.48C69.3318 3.41333 70.3785 3.38 71.2052 3.38C74.0852 3.38 76.2318 4.01333 77.6451 5.28C79.0718 6.54667 79.7852 8.48667 79.7852 11.1C79.7852 12.6467 79.4452 14.02 78.7652 15.22C78.0985 16.42 77.2118 17.3733 76.1052 18.08C76.7052 18.2267 77.2185 18.5667 77.6451 19.1C78.0851 19.6333 78.4252 20.2667 78.6652 21C78.9052 21.72 79.1118 22.4533 79.2851 23.2C79.4718 23.9333 79.6785 24.66 79.9052 25.38C80.1452 26.1 80.4052 26.64 80.6852 27H73.3052C73.1585 26.8133 73.0451 26.2933 72.9651 25.44C72.8851 24.5733 72.7718 23.54 72.6252 22.34C72.4918 21.1267 72.2985 20.1133 72.0452 19.3C72.0185 19.3 71.9852 19.3 71.9452 19.3C71.6918 19.3 71.4185 19.3 71.1252 19.3C70.8452 19.2867 70.5985 19.2733 70.3852 19.26C70.1718 19.2467 69.9452 19.2333 69.7052 19.22C69.4785 19.2067 69.3118 19.2 69.2052 19.2ZM69.2052 15.48H69.8452C70.1785 15.48 70.4585 15.4667 70.6852 15.44C70.9118 15.4133 71.1585 15.3667 71.4252 15.3C71.7052 15.22 71.9318 15.1 72.1052 14.94C72.2918 14.78 72.4652 14.5733 72.6252 14.32C72.7852 14.0667 72.9052 13.74 72.9852 13.34C73.0652 12.94 73.1052 12.4733 73.1052 11.94V10.36C73.1052 9.2 72.7985 8.39333 72.1852 7.94C71.5852 7.47333 70.7185 7.24 69.5852 7.24H69.2052V15.48Z" fill="white"></path><path d="M96.1411 27H81.9611V3.56H95.8411L95.4411 8.28L88.5811 8.08V12.6H93.9811V17.28L88.5811 16.88V22.2L96.1411 22V27Z" fill="white"></path><path d="M164.52 27H150.34V3.56H164.22L163.82 8.28L156.96 8.08V12.6H162.36V17.28L156.96 16.88V22.2L164.52 22V27Z" fill="white"></path><path d="M173.316 27.42C172.289 27.42 171.329 27.3267 170.436 27.14C169.556 26.9667 168.816 26.7333 168.216 26.44C167.616 26.1467 167.123 25.8667 166.736 25.6C166.363 25.3333 166.049 25.0667 165.796 24.8L166.296 19.94C166.843 20.6733 167.576 21.3133 168.496 21.86C169.416 22.3933 170.409 22.66 171.476 22.66C172.543 22.66 173.309 22.5467 173.776 22.32C174.256 22.0933 174.496 21.68 174.496 21.08C174.496 20.44 174.223 19.8933 173.676 19.44C173.143 18.9867 172.216 18.44 170.896 17.8C170.416 17.56 170.009 17.3467 169.676 17.16C169.343 16.96 168.896 16.64 168.336 16.2C167.789 15.7467 167.343 15.28 166.996 14.8C166.649 14.3067 166.343 13.68 166.076 12.92C165.809 12.1467 165.676 11.32 165.676 10.44C165.676 5.68 168.363 3.3 173.736 3.3C174.589 3.3 175.389 3.39333 176.136 3.58C176.896 3.75333 177.489 3.94667 177.916 4.16C178.343 4.37333 178.729 4.62667 179.076 4.92C179.436 5.2 179.663 5.4 179.756 5.52C179.849 5.62667 179.916 5.71333 179.956 5.78L178.956 9.64C178.436 9.02667 177.783 8.57333 176.996 8.28C176.223 7.97333 175.483 7.82 174.776 7.82C173.069 7.82 172.216 8.35333 172.216 9.42C172.216 9.7 172.269 9.95333 172.376 10.18C172.483 10.4067 172.656 10.6133 172.896 10.8C173.136 10.9867 173.356 11.1467 173.556 11.28C173.769 11.4133 174.056 11.58 174.416 11.78C174.789 11.9667 175.069 12.12 175.256 12.24C177.203 13.0667 178.629 14.0467 179.536 15.18C180.456 16.3133 180.916 17.6933 180.916 19.32C180.916 21.96 180.263 23.9733 178.956 25.36C177.663 26.7333 175.783 27.42 173.316 27.42Z" fill="white"></path><path d="M197.835 25.34L197.655 25.56C197.522 25.6933 197.295 25.8667 196.975 26.08C196.669 26.28 196.295 26.4867 195.855 26.7C195.429 26.9 194.855 27.0667 194.135 27.2C193.415 27.3467 192.642 27.42 191.815 27.42C190.069 27.42 188.575 27.1333 187.335 26.56C186.095 25.9733 185.122 25.1267 184.415 24.02C183.722 22.9 183.222 21.64 182.915 20.24C182.609 18.8267 182.455 17.1933 182.455 15.34C182.455 13.3667 182.609 11.6667 182.915 10.24C183.222 8.8 183.729 7.54 184.435 6.46C185.155 5.36667 186.142 4.54667 187.395 4C188.649 3.45333 190.175 3.18 191.975 3.18C192.802 3.18 193.575 3.25333 194.295 3.4C195.029 3.54667 195.602 3.71333 196.015 3.9C196.442 4.08667 196.822 4.3 197.155 4.54C197.502 4.78 197.715 4.94667 197.795 5.04C197.889 5.13333 197.955 5.20667 197.995 5.26L197.695 9.86H194.655L193.615 7.48C193.375 7.41333 193.175 7.38 193.015 7.38C192.122 7.38 191.435 7.58667 190.955 8C190.475 8.4 190.109 9.19333 189.855 10.38C189.602 11.5533 189.475 13.2467 189.475 15.46C189.475 16.78 189.555 17.9333 189.715 18.92C189.889 19.9067 190.095 20.6667 190.335 21.2C190.575 21.72 190.862 22.14 191.195 22.46C191.529 22.78 191.829 22.9867 192.095 23.08C192.362 23.16 192.649 23.2 192.955 23.2C193.635 23.2 194.349 23.12 195.095 22.96C195.842 22.7867 196.455 22.5267 196.935 22.18L197.835 25.34Z" fill="white"></path><path d="M206.397 17.94C206.397 20.1533 206.564 21.6933 206.897 22.56C207.244 23.4267 207.844 23.86 208.697 23.86C209.324 23.86 209.797 23.7067 210.117 23.4C210.437 23.08 210.677 22.4333 210.837 21.46C211.011 20.4733 211.097 19 211.097 17.04V12.22C211.097 10.3133 210.911 8.89333 210.537 7.96C210.164 7.02667 209.551 6.56 208.697 6.56C207.844 6.56 207.244 7.02 206.897 7.94C206.564 8.84667 206.397 10.5067 206.397 12.92V17.94ZM208.277 27.42C207.171 27.42 206.171 27.32 205.277 27.12C204.397 26.92 203.637 26.64 202.997 26.28C202.357 25.92 201.797 25.46 201.317 24.9C200.851 24.34 200.471 23.74 200.177 23.1C199.897 22.46 199.671 21.7133 199.497 20.86C199.324 19.9933 199.204 19.1333 199.137 18.28C199.071 17.4133 199.037 16.44 199.037 15.36C199.037 13.76 199.117 12.3667 199.277 11.18C199.451 9.99333 199.764 8.88 200.217 7.84C200.671 6.78667 201.271 5.93333 202.017 5.28C202.777 4.62667 203.751 4.11333 204.937 3.74C206.137 3.36667 207.551 3.18 209.177 3.18C210.297 3.18 211.304 3.28667 212.197 3.5C213.091 3.7 213.857 3.98 214.497 4.34C215.137 4.7 215.691 5.16667 216.157 5.74C216.637 6.31333 217.017 6.92667 217.297 7.58C217.591 8.22 217.824 8.97333 217.997 9.84C218.171 10.7067 218.291 11.5667 218.357 12.42C218.424 13.2733 218.457 14.24 218.457 15.32C218.457 16.92 218.371 18.3133 218.197 19.5C218.024 20.6867 217.711 21.8 217.257 22.84C216.804 23.8667 216.197 24.7067 215.437 25.36C214.677 26 213.697 26.5067 212.497 26.88C211.311 27.24 209.904 27.42 208.277 27.42Z" fill="white"></path><path d="M227.115 19.2V27H220.475V3.56H223.115C223.755 3.56 224.709 3.53333 225.975 3.48C227.242 3.41333 228.289 3.38 229.115 3.38C231.995 3.38 234.142 4.01333 235.555 5.28C236.982 6.54667 237.695 8.48667 237.695 11.1C237.695 12.6467 237.355 14.02 236.675 15.22C236.009 16.42 235.122 17.3733 234.015 18.08C234.615 18.2267 235.129 18.5667 235.555 19.1C235.995 19.6333 236.335 20.2667 236.575 21C236.815 21.72 237.022 22.4533 237.195 23.2C237.382 23.9333 237.589 24.66 237.815 25.38C238.055 26.1 238.315 26.64 238.595 27H231.215C231.069 26.8133 230.955 26.2933 230.875 25.44C230.795 24.5733 230.682 23.54 230.535 22.34C230.402 21.1267 230.209 20.1133 229.955 19.3C229.929 19.3 229.895 19.3 229.855 19.3C229.602 19.3 229.329 19.3 229.035 19.3C228.755 19.2867 228.509 19.2733 228.295 19.26C228.082 19.2467 227.855 19.2333 227.615 19.22C227.389 19.2067 227.222 19.2 227.115 19.2ZM227.115 15.48H227.755C228.089 15.48 228.369 15.4667 228.595 15.44C228.822 15.4133 229.069 15.3667 229.335 15.3C229.615 15.22 229.842 15.1 230.015 14.94C230.202 14.78 230.375 14.5733 230.535 14.32C230.695 14.0667 230.815 13.74 230.895 13.34C230.975 12.94 231.015 12.4733 231.015 11.94V10.36C231.015 9.2 230.709 8.39333 230.095 7.94C229.495 7.47333 228.629 7.24 227.495 7.24H227.115V15.48Z" fill="white"></path><path d="M243.591 27V8.86H238.911V3.56H255.031V8.86H250.351V27H243.591Z" fill="white"></path><path d="M263.785 27.42C262.758 27.42 261.798 27.3267 260.905 27.14C260.025 26.9667 259.285 26.7333 258.685 26.44C258.085 26.1467 257.592 25.8667 257.205 25.6C256.832 25.3333 256.518 25.0667 256.265 24.8L256.765 19.94C257.311 20.6733 258.045 21.3133 258.965 21.86C259.885 22.3933 260.878 22.66 261.945 22.66C263.012 22.66 263.778 22.5467 264.245 22.32C264.725 22.0933 264.965 21.68 264.965 21.08C264.965 20.44 264.692 19.8933 264.145 19.44C263.612 18.9867 262.685 18.44 261.365 17.8C260.885 17.56 260.478 17.3467 260.145 17.16C259.812 16.96 259.365 16.64 258.805 16.2C258.258 15.7467 257.812 15.28 257.465 14.8C257.118 14.3067 256.811 13.68 256.545 12.92C256.278 12.1467 256.145 11.32 256.145 10.44C256.145 5.68 258.832 3.3 264.205 3.3C265.058 3.3 265.858 3.39333 266.605 3.58C267.365 3.75333 267.958 3.94667 268.385 4.16C268.811 4.37333 269.198 4.62667 269.545 4.92C269.905 5.2 270.132 5.4 270.225 5.52C270.318 5.62667 270.385 5.71333 270.425 5.78L269.425 9.64C268.905 9.02667 268.252 8.57333 267.465 8.28C266.692 7.97333 265.952 7.82 265.245 7.82C263.538 7.82 262.685 8.35333 262.685 9.42C262.685 9.7 262.738 9.95333 262.845 10.18C262.952 10.4067 263.125 10.6133 263.365 10.8C263.605 10.9867 263.825 11.1467 264.025 11.28C264.238 11.4133 264.525 11.58 264.885 11.78C265.258 11.9667 265.538 12.12 265.725 12.24C267.672 13.0667 269.098 14.0467 270.005 15.18C270.925 16.3133 271.385 17.6933 271.385 19.32C271.385 21.96 270.732 23.9733 269.425 25.36C268.132 26.7333 266.252 27.42 263.785 27.42Z" fill="white"></path><path d="M137.505 2.76774C133.815 -0.922579 127.832 -0.922579 124.142 2.76774L123.636 3.27311V30L137.505 16.1316C141.195 12.4409 141.195 6.45806 137.505 2.76774Z" fill="url(#paint0_linear_54_13)"></path><path d="M109.74 2.74782C113.393 -0.915941 119.316 -0.915941 122.97 2.74782L123.47 3.24956C125.994 11.6481 125.761 20.5341 123.47 29.7841L109.74 16.0151C106.087 12.3513 106.087 6.41159 109.74 2.74782Z" fill="url(#paint1_linear_54_13)"></path><defs><linearGradient id="paint0_linear_54_13" x1="5.00882" y1="3.38456" x2="389.685" y2="-151.364" gradientUnits="userSpaceOnUse"><stop offset="1" stop-color="#F0D074"></stop></linearGradient><linearGradient id="paint1_linear_54_13" x1="113.031" y1="0.672043" x2="123.471" y2="30.2235" gradientUnits="userSpaceOnUse"><stop stop-color="#F0D074"></stop><stop offset="0.567708" stop-color="#FFFAED"></stop></linearGradient></defs></svg>