<svg xmlns="http://www.w3.org/2000/svg" width="64" height="48" viewBox="0 0 64 48" fill="none"><rect x="1" y="1" width="62" height="46" rx="7" fill="white"></rect><rect x="1" y="1" width="62" height="46" rx="7" stroke="#ECECF0" stroke-width="2"></rect><path d="M16.7793 16.579C17.3262 15.8848 17.6973 14.9526 17.5994 14C16.7988 14.0404 15.8219 14.536 15.2563 15.2308C14.7484 15.8258 14.2989 16.797 14.4161 17.7097C15.3148 17.7888 16.2127 17.2538 16.7793 16.579ZM17.5892 17.8879C16.2841 17.8089 15.1744 18.6396 14.5511 18.6396C13.9276 18.6396 12.9731 17.9276 11.9409 17.9468C10.5973 17.9668 9.35062 18.7378 8.66878 19.964C7.26643 22.4171 8.2987 26.0559 9.66242 28.0538C10.3247 29.0422 11.1228 30.1305 12.1745 30.0914C13.1681 30.0519 13.5576 29.4385 14.7654 29.4385C15.9723 29.4385 16.3231 30.0914 17.375 30.0716C18.4658 30.0519 19.1477 29.0827 19.8099 28.0934C20.5697 26.9666 20.8807 25.8786 20.9002 25.8189C20.8807 25.7991 18.7969 24.9878 18.7776 22.5551C18.7579 20.5182 20.4136 19.5494 20.4915 19.4893C19.5565 18.0858 18.0957 17.9276 17.5892 17.8879Z" fill="black"></path><path d="M30.6028 15.1321C33.4394 15.1321 35.4149 17.1166 35.4149 20.0059C35.4149 22.9054 33.399 24.9003 30.5319 24.9003H27.3911V29.9692H25.1218V15.1321H30.6028ZM27.3911 22.9671H29.9948C31.9705 22.9671 33.0949 21.8876 33.0949 20.0162C33.0949 18.145 31.9705 17.0756 30.005 17.0756H27.3911V22.9671ZM35.9779 26.8951C35.9779 24.9927 37.4064 23.9028 40.0404 23.7384L42.8669 23.5635V22.741C42.8669 21.538 42.0868 20.8799 40.699 20.8799C39.554 20.8799 38.7233 21.4763 38.5511 22.3914H36.5045C36.5655 20.4686 38.3485 19.0704 40.7597 19.0704C43.3533 19.0704 45.0452 20.4482 45.0452 22.5867V29.9692H42.948V28.1906H42.8974C42.2996 29.3524 40.9825 30.0822 39.554 30.0822C37.4468 30.0822 35.9779 28.8074 35.9779 26.8951ZM42.8669 25.9388V25.1058L40.3443 25.2704C38.9259 25.3628 38.1865 25.8975 38.1865 26.8332C38.1865 27.738 38.9564 28.3243 40.1619 28.3243C41.7018 28.3243 42.8669 27.3266 42.8669 25.9388ZM46.9731 33.9381V32.1595C47.115 32.1798 47.4594 32.2004 47.6417 32.2004C48.6447 32.2004 49.212 31.7688 49.5566 30.6582L49.7592 30.0001L45.9195 19.204H48.2901L50.9647 27.9641H51.0153L53.69 19.204H56L52.0184 30.5451C51.1066 33.1464 50.0631 34 47.8545 34C47.6823 34 47.125 33.9794 46.9731 33.9381Z" fill="black"></path></svg>