<svg xmlns="http://www.w3.org/2000/svg" width="64" height="48" viewBox="0 0 64 48" fill="none"><rect x="1" y="1" width="62" height="46" rx="7" fill="white"></rect><rect x="1" y="1" width="62" height="46" rx="7" stroke="#ECECF0" stroke-width="2"></rect><path d="M30.3364 23.7271V29.6238H28.5008V15.0624H33.367C34.6003 15.0624 35.6519 15.4815 36.5123 16.3197C37.3919 17.1579 37.8317 18.1813 37.8317 19.3899C37.8317 20.6277 37.3919 21.6511 36.5123 22.4795C35.6615 23.308 34.6098 23.7173 33.367 23.7173H30.3364V23.7271ZM30.3364 16.8558V21.9337H33.4052C34.1318 21.9337 34.7437 21.6803 35.2217 21.1832C35.7093 20.6862 35.9578 20.0819 35.9578 19.3996C35.9578 18.7271 35.7093 18.1326 35.2217 17.6355C34.7437 17.1189 34.1414 16.8655 33.4052 16.8655H30.3364V16.8558Z" fill="#3C4043"></path><path d="M42.6313 19.3314C43.9888 19.3314 45.0596 19.7018 45.8435 20.4425C46.6275 21.1833 47.0195 22.1969 47.0195 23.4835V29.6238H45.2699V28.2398H45.1934C44.4382 29.3802 43.4248 29.9455 42.1628 29.9455C41.0825 29.9455 40.1839 29.6238 39.4573 28.9708C38.7307 28.3178 38.3674 27.5088 38.3674 26.5341C38.3674 25.501 38.7498 24.6823 39.5146 24.078C40.2795 23.464 41.3024 23.1618 42.5739 23.1618C43.6638 23.1618 44.5625 23.3665 45.2604 23.7759V23.347C45.2604 22.694 45.0118 22.1482 44.5051 21.6901C43.9984 21.232 43.4057 21.0078 42.7269 21.0078C41.7039 21.0078 40.8913 21.4464 40.2986 22.3334L38.6829 21.3002C39.572 19.9844 40.8913 19.3314 42.6313 19.3314ZM40.2603 26.5634C40.2603 27.0507 40.4611 27.4601 40.8722 27.7817C41.2737 28.1033 41.7517 28.269 42.2967 28.269C43.0711 28.269 43.7594 27.9766 44.3617 27.3918C44.964 26.8071 45.2699 26.1248 45.2699 25.3353C44.6963 24.8772 43.9028 24.6433 42.8799 24.6433C42.1342 24.6433 41.5127 24.8285 41.0156 25.1891C40.5089 25.5692 40.2603 26.0273 40.2603 26.5634Z" fill="#3C4043"></path><path d="M57.0004 19.6531L50.8818 34.0001H48.9889L51.2642 28.9806L47.2298 19.6531H49.2279L52.1342 26.8071H52.1724L55.0023 19.6531H57.0004Z" fill="#3C4043"></path><path d="M23.0351 22.538C23.0351 21.9278 22.9816 21.344 22.8821 20.7826H15.188V23.999L19.6192 23.9999C19.4395 25.0701 18.8611 25.9824 17.9748 26.5906V28.6773H20.6125C22.1527 27.2241 23.0351 25.076 23.0351 22.538Z" fill="#4285F4"></path><path d="M17.9758 26.5907C17.2416 27.0955 16.296 27.3909 15.1899 27.3909C13.0532 27.3909 11.2406 25.923 10.5914 23.9445H7.87057V26.0965C9.21857 28.8236 11.9891 30.6949 15.1899 30.6949C17.4022 30.6949 19.2607 29.9532 20.6135 28.6764L17.9758 26.5907Z" fill="#34A853"></path><path d="M10.3354 22.3479C10.3354 21.7923 10.4262 21.2553 10.5916 20.7504V18.5984H7.87079C7.31342 19.7261 6.99985 20.999 6.99985 22.3479C6.99985 23.6968 7.31438 24.9697 7.87079 26.0974L10.5916 23.9454C10.4262 23.4405 10.3354 22.9035 10.3354 22.3479Z" fill="#FABB05"></path><path d="M15.1899 17.3041C16.3974 17.3041 17.4787 17.7281 18.3324 18.5565L20.6699 16.1754C19.2502 14.8275 17.3993 14 15.1899 14C11.9901 14 9.21857 15.8713 7.87057 18.5984L10.5914 20.7505C11.2406 18.7719 13.0532 17.3041 15.1899 17.3041Z" fill="#E94235"></path></svg>