<svg xmlns="http://www.w3.org/2000/svg" width="64" height="48" viewBox="0 0 64 48" fill="none"><rect width="64" height="48" rx="8" fill="#E664A5"></rect><path d="M15 11.2248V36.7752C15 38.003 15.9952 39 17.2218 39H32.4751C44.0016 39 49 32.5377 49 23.9701C49 15.4355 44.0016 9 32.4751 9H17.2197C15.9972 9 15 9.99499 15 11.2248Z" fill="white"></path><path d="M32.4715 36.9544H19.2065C18.6427 36.9555 18.1015 36.7317 17.7016 36.332C17.3016 35.9324 17.0755 35.3894 17.0728 34.8223V13.1777C17.0733 12.8964 17.1289 12.6179 17.2364 12.3582C17.3439 12.0985 17.5013 11.8626 17.6994 11.664C17.8975 11.4655 18.1326 11.3081 18.3912 11.2009C18.6498 11.0938 18.9268 11.0389 19.2065 11.0394H32.4715C45.0525 11.0394 46.9323 19.1394 46.9323 23.9681C46.9323 32.3441 41.7967 36.9544 32.4715 36.9544ZM19.2065 11.7563C18.8306 11.7558 18.4699 11.905 18.2031 12.1714C17.9364 12.4378 17.7855 12.7996 17.7833 13.1777V34.8244C17.7833 35.6092 18.4201 36.2458 19.2065 36.2458H32.4715C41.338 36.2458 46.2218 31.8868 46.2218 23.9722C46.2218 13.3425 37.6071 11.7563 32.4715 11.7563H19.2065Z" fill="black"></path><path d="M25.2054 15.2727V34.1486H33.4147C40.8724 34.1486 44.1037 29.9297 44.1037 23.9804C44.1037 18.2804 40.8724 13.8513 33.4147 13.8513H26.6265C26.2509 13.8508 25.8904 14.0001 25.624 14.2665C25.3576 14.533 25.2071 14.8948 25.2054 15.2727Z" fill="#CC0066"></path><path d="M40.8538 21.4322V25.1073H43.049V25.9416H39.8648V21.4302L40.8538 21.4322ZM37.5571 21.4322L39.2423 25.9416H38.2144L37.8744 24.9404H36.1871L35.8349 25.9416H34.8336L36.5393 21.4302L37.5571 21.4322ZM37.6144 24.1968L37.0451 22.5426H37.0328L36.4472 24.1968H37.6144ZM34.164 21.4322V22.2645H31.7846V23.2327H33.9674V24.0011H31.7846V25.1073H34.2152V25.9416H30.7955V21.4302L34.164 21.4322ZM28.0946 21.4322C28.3711 21.4302 28.6475 21.4755 28.9055 21.5703C29.1575 21.6612 29.3855 21.8086 29.5725 22.0014C29.7595 22.1941 29.9004 22.4271 29.9847 22.6827C30.1816 23.2946 30.1916 23.9519 30.0133 24.5696C29.9367 24.8337 29.8071 25.079 29.6325 25.2906C29.4576 25.4954 29.2393 25.658 28.9936 25.7665C28.7097 25.8886 28.4033 25.9483 28.0946 25.9416H26.1514V21.4302H28.0967L28.0946 21.4322ZM28.025 25.1073C28.1684 25.1073 28.3076 25.0846 28.4427 25.0373C28.5784 24.9895 28.7012 24.9105 28.8011 24.8065C28.9143 24.6869 29.0008 24.5443 29.055 24.3884C29.123 24.1847 29.1549 23.9707 29.1492 23.7559C29.1492 23.5499 29.1287 23.3439 29.0837 23.14C29.0437 22.9691 28.9676 22.8089 28.8605 22.6703C28.7551 22.5365 28.6167 22.4328 28.4591 22.3695C28.2631 22.295 28.0543 22.26 27.8448 22.2665H27.1384V25.1073H28.025Z" fill="white"></path><path d="M21.495 26.9633C22.3652 26.9633 23.0697 27.6678 23.0697 28.5372V34.1487C21.3291 34.1487 19.9203 32.7375 19.9203 30.9968V28.5372C19.92 28.3294 19.9607 28.1236 20.04 27.9317C20.1193 27.7398 20.2356 27.5656 20.3822 27.4193C20.5289 27.2729 20.7029 27.1573 20.8942 27.079C21.0856 27.0007 21.2905 26.9614 21.497 26.9633H21.495Z" fill="black"></path><path d="M21.4958 25.7665C22.6436 25.7665 23.5742 24.8349 23.5742 23.6858C23.5742 22.5367 22.6436 21.6052 21.4958 21.6052C20.3479 21.6052 19.4174 22.5367 19.4174 23.6858C19.4174 24.8349 20.3479 25.7665 21.4958 25.7665Z" fill="black"></path></svg>