<svg xmlns="http://www.w3.org/2000/svg" width="64" height="48" viewBox="0 0 64 48" fill="none"><rect width="64" height="48" rx="8" fill="black"></rect><path d="M26 34C31.5228 34 35.9999 29.5228 35.9999 24C35.9999 18.4772 31.5228 14 26 14C20.4771 14 16 18.4772 16 24C16 29.5228 20.4771 34 26 34Z" fill="#E7001A"></path><path d="M38 34C43.5228 34 48 29.5228 48 24C48 18.4772 43.5228 14 38 14C32.4772 14 28.0001 18.4772 28.0001 24C28.0001 29.5228 32.4772 34 38 34Z" fill="#F49B1C"></path><path opacity="0.3" fill-rule="evenodd" clip-rule="evenodd" d="M32.0001 15.9993C34.4289 17.8237 36 20.7283 36 24C36 27.2716 34.4289 30.1763 32.0001 32.0007C29.5712 30.1763 28.0001 27.2716 28.0001 24C28.0001 20.7283 29.5712 17.8237 32.0001 15.9993Z" fill="#E7001A"></path></svg>