<svg xmlns="http://www.w3.org/2000/svg" width="64" height="48" viewBox="0 0 64 48" fill="none"><rect width="64" height="48" rx="8" fill="#1B16E6"></rect><path d="M32.8245 21.1151C32.7971 23.3439 34.7485 24.5877 36.2189 25.3271C37.7293 26.0859 38.2368 26.5724 38.2309 27.2509C38.2195 28.2894 37.0261 28.7476 35.9091 28.7655C33.9602 28.7967 32.8273 28.2224 31.9265 27.788L31.2246 31.1787C32.1283 31.6087 33.8017 31.9836 35.5371 32C39.6104 32 42.2755 29.9245 42.2899 26.7063C42.3056 22.6223 36.8171 22.3961 36.8544 20.5706C36.8675 20.0171 37.3792 19.4265 38.5005 19.2762C39.0555 19.2003 40.5875 19.1423 42.3245 19.968L43.0061 16.6874C42.0723 16.3362 40.8715 16 39.3768 16C35.5429 16 32.8461 18.1038 32.8245 21.1151ZM49.5571 16.2827C48.8133 16.2827 48.1864 16.7305 47.9067 17.4179L42.088 31.759H46.1584L46.9685 29.4484H51.9427L52.4125 31.759H56L52.8693 16.2827H49.5571ZM50.1264 20.4635L51.3011 26.2749H48.084L50.1264 20.4635ZM27.8893 16.2827L24.6808 31.759H28.5595L31.7665 16.2827H27.8893ZM22.1512 16.2827L18.114 26.8164L16.4809 17.8598C16.2892 16.8599 15.5325 16.2827 14.6922 16.2827H8.09225L8 16.732C9.35487 17.0355 10.8942 17.525 11.8268 18.0487C12.3976 18.3686 12.5605 18.6483 12.7478 19.4086L15.841 31.759H19.9402L26.2245 16.2827H22.1512Z" fill="white"></path></svg>